<?xml version="1.0" standalone="no"?>
<!DOCTYPE svg PUBLIC "-//W3C//DTD SVG 20010904//EN"
 "http://www.w3.org/TR/2001/REC-SVG-20010904/DTD/svg10.dtd">
<svg version="1.0" xmlns="http://www.w3.org/2000/svg"
 width="1572.000000pt" height="1572.000000pt" viewBox="0 0 1572.000000 1572.000000"
 preserveAspectRatio="xMidYMid meet">
<metadata>
Created by potrace 1.14, written by Peter Selinger 2001-2017
</metadata>
<g transform="translate(0.000000,1572.000000) scale(0.100000,-0.100000)"
fill="#000000" stroke="none">
<path d="M7778 15645 c-3 -2 -47 -6 -263 -20 -54 -4 -386 -47 -460 -60 -142
-25 -370 -74 -554 -120 -222 -54 -600 -178 -781 -255 -25 -11 -94 -40 -155
-66 -60 -25 -181 -82 -268 -125 -87 -44 -160 -79 -162 -79 -1 0 -5 42 -7 93
-7 130 -30 189 -99 258 -54 54 -91 74 -180 95 -13 4 -742 7 -1619 8 -1287 1
-1608 -1 -1660 -11 -111 -23 -203 -101 -249 -210 -14 -34 -16 -719 -19 -7403
-2 -5508 0 -7379 8 -7420 26 -123 126 -230 240 -256 19 -5 764 -10 1655 -11
1481 -3 1625 -1 1680 14 102 28 185 104 223 205 16 39 17 191 20 1746 1 936 5
1702 8 1702 3 0 33 -15 68 -33 60 -32 236 -116 356 -170 90 -40 284 -116 419
-164 217 -76 403 -129 676 -194 72 -17 139 -33 150 -35 11 -2 31 -6 45 -9 26
-5 164 -31 215 -40 76 -13 155 -25 210 -30 33 -4 67 -8 75 -10 8 -2 47 -7 85
-10 39 -4 86 -8 105 -10 109 -13 278 -19 545 -20 267 0 391 4 560 20 28 2 77
7 110 10 33 3 71 7 85 10 14 3 48 7 75 10 28 2 61 7 75 9 22 4 54 9 130 21 25
4 157 29 215 40 447 89 989 261 1350 429 39 18 99 46 135 61 36 16 70 32 75
36 6 4 62 34 125 67 198 102 577 330 655 394 5 4 42 31 80 58 39 27 81 58 94
67 39 29 194 147 216 165 11 10 54 45 95 79 126 104 237 207 405 374 156 156
190 193 305 325 53 61 62 71 105 122 11 12 72 93 137 178 64 85 126 166 136
180 33 43 197 292 237 360 22 36 44 72 51 80 25 33 169 300 248 463 246 505
421 1043 530 1632 14 72 27 150 31 175 3 25 8 52 10 60 2 8 7 44 10 80 3 36 8
72 10 80 2 8 7 47 10 85 3 39 8 90 10 115 15 157 18 256 19 505 1 252 -7 498
-18 565 -2 14 -7 59 -10 100 -4 41 -8 86 -10 100 -3 14 -7 48 -11 75 -7 62
-11 86 -30 205 -16 102 -19 118 -35 195 -6 28 -12 59 -14 70 -3 11 -9 40 -15
65 -5 25 -12 57 -14 71 -3 14 -24 97 -47 185 -23 87 -43 166 -45 174 -16 66
-131 407 -171 504 -14 34 -27 68 -29 76 -16 67 -264 589 -337 708 -21 34 -38
64 -38 67 0 13 -269 441 -302 480 -8 9 -42 56 -126 174 -28 38 -135 176 -142
181 -3 3 -13 14 -21 26 -12 19 -58 74 -118 143 -103 119 -179 199 -316 336
-269 269 -468 439 -750 642 -55 40 -104 76 -110 81 -31 25 -315 207 -400 257
-55 32 -120 70 -145 85 -190 112 -679 333 -930 420 -14 4 -34 11 -45 16 -11 4
-24 8 -30 10 -5 1 -60 18 -122 38 -61 20 -119 39 -130 41 -10 2 -58 16 -108
30 -49 14 -101 28 -115 31 -14 3 -68 16 -120 29 -103 26 -302 67 -430 89 -78
13 -97 16 -140 22 -25 3 -56 7 -70 9 -78 12 -173 22 -275 30 -44 4 -98 9 -120
12 -43 5 -741 13 -747 8z"/>
</g>
</svg>
